<?xml version="1.0" encoding="UTF-8" standalone="no"?>
<!-- Created with Inkscape (http://www.inkscape.org/) -->

<svg
   xmlns:dc="http://purl.org/dc/elements/1.1/"
   xmlns:cc="http://creativecommons.org/ns#"
   xmlns:rdf="http://www.w3.org/1999/02/22-rdf-syntax-ns#"
   xmlns:svg="http://www.w3.org/2000/svg"
   xmlns="http://www.w3.org/2000/svg"
   xmlns:sodipodi="http://sodipodi.sourceforge.net/DTD/sodipodi-0.dtd"
   xmlns:inkscape="http://www.inkscape.org/namespaces/inkscape"
   width="2339"
   height="1080"
   viewBox="0 0 618.86028 285.74973"
   version="1.1"
   id="svg8"
   inkscape:version="0.92.2 (5c3e80d, 2017-08-06)"
   sodipodi:docname="WhatIUse-inkscape.svg">
  <defs
     id="defs2">
    <clipPath
       clipPathUnits="userSpaceOnUse"
       id="clipPath2307">
      <rect
         style="opacity:1;fill:#334f78;fill-opacity:1;stroke:none;stroke-width:1;stroke-miterlimit:4;stroke-dasharray:none;stroke-opacity:1"
         id="rect2309"
         width="457.35117"
         height="258.53571"
         x="100.54166"
         y="-79.375" />
    </clipPath>
    <clipPath
       clipPathUnits="userSpaceOnUse"
       id="clipPath2307-7">
      <rect
         style="opacity:1;fill:#334f78;fill-opacity:1;stroke:none;stroke-width:1;stroke-miterlimit:4;stroke-dasharray:none;stroke-opacity:1"
         id="rect2309-7"
         width="457.35117"
         height="258.53571"
         x="100.54166"
         y="-79.375" />
    </clipPath>
    <radialGradient
       gradientUnits="userSpaceOnUse"
       gradientTransform="matrix(0.463,0,0,0.463,76.4644,81.9182)"
       r="363.05649"
       cy="-125.811"
       cx="0.83660001"
       id="radialGradient-1">
      <stop
         id="stop2845"
         style="stop-color:#FFFFFF"
         offset="0" />
      <stop
         id="stop2847"
         style="stop-color:#4C6B97"
         offset="0.5" />
      <stop
         id="stop2849"
         style="stop-color:#231F20"
         offset="1" />
    </radialGradient>
  </defs>
  <sodipodi:namedview
     id="base"
     pagecolor="#ffffff"
     bordercolor="#666666"
     borderopacity="1.0"
     inkscape:pageopacity="0.0"
     inkscape:pageshadow="2"
     inkscape:zoom="5.6"
     inkscape:cx="2297.6357"
     inkscape:cy="10.679727"
     inkscape:document-units="mm"
     inkscape:current-layer="layer5"
     showgrid="false"
     inkscape:window-width="1920"
     inkscape:window-height="1017"
     inkscape:window-x="-8"
     inkscape:window-y="-8"
     inkscape:window-maximized="1"
     units="px" />
  <metadata
     id="metadata5">
    <rdf:RDF>
      <cc:Work
         rdf:about="">
        <dc:format>image/svg+xml</dc:format>
        <dc:type
           rdf:resource="http://purl.org/dc/dcmitype/StillImage" />
        <dc:title></dc:title>
      </cc:Work>
    </rdf:RDF>
  </metadata>
  <g
     inkscape:groupmode="layer"
     id="layer5"
     inkscape:label="hexagon bg"
     transform="translate(0,-1.6666667e-5)">
    <path
       style="display:inline;fill:#587196;fill-opacity:1;stroke:none;stroke-width:0.29738855px;stroke-linecap:butt;stroke-linejoin:miter;stroke-opacity:1"
       d="m 392.81366,144.576 47.26728,27.85343 v 53.10367 l -47.23912,28.08156 -47.44064,-28.0683 v -52.98081 z"
       id="path2290-63-2-6-5"
       inkscape:connector-curvature="0" />
    <path
       style="display:inline;fill:#587196;fill-opacity:1;stroke:none;stroke-width:0.29738855px;stroke-linecap:butt;stroke-linejoin:miter;stroke-opacity:1"
       d="m 482.68416,198.11122 47.26729,27.85343 v 53.10367 l -47.23913,28.08156 -47.44064,-28.0683 v -52.98081 z"
       id="path2290-63-2-6-5-0"
       inkscape:connector-curvature="0" />
    <path
       style="display:inline;fill:#587196;fill-opacity:1;stroke:none;stroke-width:0.29738855px;stroke-linecap:butt;stroke-linejoin:miter;stroke-opacity:1"
       d="m 303.56137,88.954227 47.26729,27.853393 v 53.10367 l -47.23913,28.08156 -47.44064,-28.0683 v -52.98081 z"
       id="path2290-63-2-6-5-0-4"
       inkscape:connector-curvature="0" />
    <path
       style="display:inline;fill:#587196;fill-opacity:1;stroke:none;stroke-width:0.29738855px;stroke-linecap:butt;stroke-linejoin:miter;stroke-opacity:1"
       d="m 215.47846,36.044527 47.26729,27.853394 V 117.00154 L 215.50662,145.08311 168.06598,117.0148 V 64.034041 Z"
       id="path2290-63-2-6-5-0-4-3"
       inkscape:connector-curvature="0" />
    <path
       style="display:inline;fill:#587196;fill-opacity:1;stroke:none;stroke-width:0.29738855px;stroke-linecap:butt;stroke-linejoin:miter;stroke-opacity:1"
       d="M 126.09617,-19.550718 173.36345,8.3026752 V 61.406297 L 126.12433,89.487862 78.68368,61.419555 V 8.4387949 Z"
       id="path2290-63-2-6-5-0-4-3-1"
       inkscape:connector-curvature="0" />
    <path
       style="fill:#587196;fill-opacity:1;stroke:none;stroke-width:0.26458332px;stroke-linecap:butt;stroke-linejoin:miter;stroke-opacity:1"
       d="M 80.788428,9.1069686 546.83344,288.68997 H -4.8108515 V -8.7810193 H 109.5805 Z"
       id="path3363"
       inkscape:connector-curvature="0"
       sodipodi:nodetypes="cccccc" />
    <path
       style="display:inline;fill:#587196;fill-opacity:1;stroke:none;stroke-width:0.29738855px;stroke-linecap:butt;stroke-linejoin:miter;stroke-opacity:1"
       d="m 571.56458,249.56676 47.26729,27.85343 v 53.10367 l -47.23913,28.08157 -47.44064,-28.06831 v -52.98081 z"
       id="path2290-63-2-6-5-0-2"
       inkscape:connector-curvature="0" />
  </g>
  <g
     inkscape:groupmode="layer"
     id="layer3"
     inkscape:label="hexagon"
     style="display:inline"
     transform="translate(0,-1.6666667e-5)">
    <path
       style="fill:#334f78;fill-opacity:1;stroke:none;stroke-width:0.26458332px;stroke-linecap:butt;stroke-linejoin:miter;stroke-opacity:1"
       d="m 126.09617,-13.729881 42.05318,24.780897 V 58.29674 L 126.12122,83.280597 83.913808,58.308554 V 11.172121 Z"
       id="path2290"
       inkscape:connector-curvature="0" />
    <path
       style="fill:#334f78;fill-opacity:1;stroke:none;stroke-width:0.26458332px;stroke-linecap:butt;stroke-linejoin:miter;stroke-opacity:1"
       d="m 37.749596,41.603466 42.05318,24.780897 V 113.63009 L 37.774646,138.61394 -4.4327663,113.6419 V 66.505468 Z"
       id="path2290-4"
       inkscape:connector-curvature="0" />
    <path
       style="display:inline;fill:#334f78;fill-opacity:1;stroke:none;stroke-width:0.26458332px;stroke-linecap:butt;stroke-linejoin:miter;stroke-opacity:1"
       d="m 37.268217,-67.280095 42.05318,24.780897 V 4.7465255 L 37.293277,29.730384 -4.9141371,4.7583395 V -42.378093 Z"
       id="path2290-6"
       inkscape:connector-curvature="0" />
    <path
       style="display:inline;fill:#334f78;fill-opacity:1;stroke:none;stroke-width:0.26458332px;stroke-linecap:butt;stroke-linejoin:miter;stroke-opacity:1"
       d="m 215.47846,41.865364 42.05318,24.780897 V 113.89199 L 215.50351,138.87585 173.2961,113.9038 V 66.767366 Z"
       id="path2290-63"
       inkscape:connector-curvature="0" />
    <path
       style="display:inline;fill:#334f78;fill-opacity:1;stroke:none;stroke-width:0.26458332px;stroke-linecap:butt;stroke-linejoin:miter;stroke-opacity:1"
       d="m 303.56137,95.304231 42.05318,24.780889 v 47.24574 l -42.02813,24.98386 -42.20741,-24.97205 v -47.13644 z"
       id="path2290-63-2"
       inkscape:connector-curvature="0" />
    <path
       style="display:inline;fill:#334f78;fill-opacity:1;stroke:none;stroke-width:0.26458332px;stroke-linecap:butt;stroke-linejoin:miter;stroke-opacity:1"
       d="m 392.70233,150.66026 42.05318,24.78089 v 47.24574 l -42.02813,24.98386 -42.20741,-24.97205 v -47.13644 z"
       id="path2290-63-2-6"
       inkscape:connector-curvature="0" />
    <path
       style="display:inline;fill:#334f78;fill-opacity:1;stroke:none;stroke-width:0.26458332px;stroke-linecap:butt;stroke-linejoin:miter;stroke-opacity:1"
       d="m 482.15499,203.93209 42.05318,24.78089 v 47.24574 l -42.02813,24.98386 -42.20741,-24.97205 v -47.13644 z"
       id="path2290-63-2-6-6"
       inkscape:connector-curvature="0" />
    <path
       style="display:inline;fill:#334f78;fill-opacity:1;stroke:none;stroke-width:0.26458332px;stroke-linecap:butt;stroke-linejoin:miter;stroke-opacity:1"
       d="m 392.98184,259.33225 42.05318,24.78089 v 47.24574 l -42.02813,24.98386 -42.20741,-24.97205 v -47.13644 z"
       id="path2290-63-2-6-6-1"
       inkscape:connector-curvature="0" />
    <path
       style="display:inline;fill:#334f78;fill-opacity:1;stroke:none;stroke-width:0.26458332px;stroke-linecap:butt;stroke-linejoin:miter;stroke-opacity:1"
       d="m 126.30531,95.148852 42.05318,24.780878 v 47.24573 l -42.02813,24.98386 -42.20741,-24.97205 v -47.13643 z"
       id="path2290-63-6"
       inkscape:connector-curvature="0" />
    <path
       style="display:inline;fill:#334f78;fill-opacity:1;stroke:none;stroke-width:0.26458332px;stroke-linecap:butt;stroke-linejoin:miter;stroke-opacity:1"
       d="m 214.91739,150.17521 42.05318,24.78089 v 47.24575 l -42.02813,24.98386 -42.20741,-24.97205 v -47.13645 z"
       id="path2290-63-2-3"
       inkscape:connector-curvature="0" />
    <path
       style="display:inline;fill:#334f78;fill-opacity:1;stroke:none;stroke-width:0.26458332px;stroke-linecap:butt;stroke-linejoin:miter;stroke-opacity:1"
       d="m 304.05835,203.94374 42.05318,24.78089 v 47.24574 l -42.02813,24.98386 -42.20741,-24.97205 v -47.13644 z"
       id="path2290-63-2-6-2"
       inkscape:connector-curvature="0" />
    <path
       style="display:inline;fill:#334f78;fill-opacity:1;stroke:none;stroke-width:0.26458332px;stroke-linecap:butt;stroke-linejoin:miter;stroke-opacity:1"
       d="m 37.857711,150.25653 42.05318,24.78088 v 47.24573 l -42.02813,24.98387 -42.2074116,-24.97205 v -47.13644 z"
       id="path2290-63-6-1"
       inkscape:connector-curvature="0" />
    <path
       style="display:inline;fill:#334f78;fill-opacity:1;stroke:none;stroke-width:0.26458332px;stroke-linecap:butt;stroke-linejoin:miter;stroke-opacity:1"
       d="m 126.4698,203.69539 42.05318,24.78089 v 47.24575 l -42.02813,24.98386 -42.207419,-24.97205 v -47.13645 z"
       id="path2290-63-2-3-3"
       inkscape:connector-curvature="0" />
    <path
       style="display:inline;fill:#334f78;fill-opacity:1;stroke:none;stroke-width:0.26458332px;stroke-linecap:butt;stroke-linejoin:miter;stroke-opacity:1"
       d="m 215.61076,259.05143 42.05318,24.78089 v 47.24574 l -42.02813,24.98386 -42.20741,-24.97205 v -47.13644 z"
       id="path2290-63-2-6-2-9"
       inkscape:connector-curvature="0" />
    <path
       style="display:inline;fill:#334f78;fill-opacity:1;stroke:none;stroke-width:0.26458332px;stroke-linecap:butt;stroke-linejoin:miter;stroke-opacity:1"
       d="m 37.476956,259.30522 42.05318,24.78089 v 47.24575 l -42.02813,24.98386 -42.2074185,-24.97205 v -47.13645 z"
       id="path2290-63-2-3-3-4"
       inkscape:connector-curvature="0" />
    <path
       style="display:inline;fill:#334f78;fill-opacity:1;stroke:none;stroke-width:0.26458332px;stroke-linecap:butt;stroke-linejoin:miter;stroke-opacity:1"
       d="m 571.56458,255.38763 42.05318,24.78089 v 47.24574 l -42.02813,24.98386 -42.20741,-24.97205 v -47.13644 z"
       id="path2290-63-2-6-6-1-9"
       inkscape:connector-curvature="0" />
  </g>
  <g
     inkscape:groupmode="layer"
     id="layer4"
     inkscape:label="logos"
     style="opacity:1"
     transform="translate(0,-1.6666667e-5)">
    <g
       id="g2450"
       transform="matrix(0.26458333,0,0,0.26458333,3.6082745,52.264374)">
      <path
         id="path2436"
         d="m 255.569,84.72 c -0.002,-4.83 -1.035,-9.098 -3.124,-12.761 -2.052,-3.602 -5.125,-6.621 -9.247,-9.008 C 209.173,43.332 175.115,23.773 141.101,4.134 131.931,-1.16 123.04,-0.967 113.938,4.403 100.395,12.39 32.59,51.237 12.385,62.94 4.064,67.757 0.015,75.129 0.013,84.711 0,124.166 0.013,163.62 0,203.076 c 0.002,4.724 0.991,8.909 2.988,12.517 2.053,3.711 5.169,6.813 9.386,9.254 20.206,11.703 88.02,50.547 101.56,58.536 9.106,5.373 17.997,5.565 27.17,0.269 34.015,-19.64 68.075,-39.198 102.105,-58.817 4.217,-2.44 7.333,-5.544 9.386,-9.252 1.994,-3.608 2.985,-7.793 2.987,-12.518 0,0 0,-78.889 -0.013,-118.345"
         inkscape:connector-curvature="0"
         style="fill:#5c8dbc" />
      <path
         id="path2438"
         d="M 128.182,143.509 2.988,215.593 c 2.053,3.711 5.169,6.813 9.386,9.254 20.206,11.703 88.02,50.547 101.56,58.536 9.106,5.373 17.997,5.565 27.17,0.269 34.015,-19.64 68.075,-39.198 102.105,-58.817 4.217,-2.44 7.333,-5.544 9.386,-9.252 L 128.182,143.509"
         inkscape:connector-curvature="0"
         style="fill:#1a4674" />
      <path
         id="path2440"
         d="m 91.101,164.861 c 7.285,12.718 20.98,21.296 36.69,21.296 15.807,0 29.58,-8.687 36.828,-21.541 l -36.437,-21.107 -37.081,21.352"
         inkscape:connector-curvature="0"
         style="fill:#1a4674" />
      <path
         id="path2442"
         d="m 255.569,84.72 c -0.002,-4.83 -1.035,-9.098 -3.124,-12.761 l -124.263,71.55 124.413,72.074 c 1.994,-3.608 2.985,-7.793 2.987,-12.518 0,0 0,-78.889 -0.013,-118.345"
         inkscape:connector-curvature="0"
         style="fill:#1b598e" />
      <path
         id="path2444"
         d="m 248.728,148.661 h -9.722 v 9.724 h -9.724 v -9.724 h -9.721 v -9.721 h 9.721 v -9.722 h 9.724 v 9.722 h 9.722 v 9.721"
         inkscape:connector-curvature="0"
         style="fill:#ffffff" />
      <path
         id="path2446"
         d="m 213.253,148.661 h -9.721 v 9.724 h -9.722 v -9.724 h -9.722 v -9.721 h 9.722 v -9.722 h 9.722 v 9.722 h 9.721 v 9.721"
         inkscape:connector-curvature="0"
         style="fill:#ffffff" />
      <path
         id="path2448"
         d="m 164.619,164.616 c -7.248,12.854 -21.021,21.541 -36.828,21.541 -15.71,0 -29.405,-8.578 -36.69,-21.296 -3.539,-6.18 -5.574,-13.335 -5.574,-20.968 0,-23.341 18.923,-42.263 42.264,-42.263 15.609,0 29.232,8.471 36.553,21.059 l 36.941,-21.272 C 186.602,76.071 159.189,59.019 127.791,59.019 c -46.876,0 -84.875,38 -84.875,84.874 0,15.378 4.091,29.799 11.241,42.238 14.646,25.48 42.137,42.637 73.634,42.637 31.555,0 59.089,-17.226 73.714,-42.781 l -36.886,-21.371"
         inkscape:connector-curvature="0"
         style="fill:#ffffff" />
    </g>
    <g
       id="g2674"
       transform="matrix(0.18341065,0,0,0.18341065,13.840947,175.84515)">
      <path
         id="path2668"
         d="M 0,0 H 256 V 256 H 0 Z"
         inkscape:connector-curvature="0"
         style="fill:#f7df1e" />
      <path
         id="path2670"
         d="m 67.311746,213.93229 19.590908,-11.85605 c 3.779454,6.70111 7.217575,12.3709 15.464436,12.3709 7.90511,0 12.88899,-3.09232 12.88899,-15.12026 v -81.79809 h 24.05749 V 199.667 c 0,24.91733 -14.60581,36.25894 -35.91517,36.25894 -19.245105,0 -30.416457,-9.96734 -36.08706,-21.99568"
         inkscape:connector-curvature="0"
         style="fill:#000000" />
      <path
         id="path2672"
         d="m 152.38095,211.35441 19.58847,-11.34161 c 5.15657,8.42118 11.85849,14.60703 23.71495,14.60703 9.96815,0 16.32467,-4.98387 16.32467,-11.85767 0,-8.24848 -6.52962,-11.17014 -17.52787,-15.98009 l -6.01275,-2.57951 c -17.35721,-7.38783 -28.87111,-16.66722 -28.87111,-36.25772 0,-18.04353 13.7472,-31.79154 35.22844,-31.79154 15.29417,0 26.29201,5.32764 34.19591,19.24713 l -18.73107,12.02834 c -4.12444,-7.38864 -8.59103,-10.30948 -15.46443,-10.30948 -7.04569,0 -11.51391,4.46781 -11.51391,10.30948 0,7.21758 4.46822,10.13964 14.77771,14.60785 l 6.01396,2.57747 c 20.44953,8.76455 31.96343,17.69936 31.96343,37.8043 0,21.65353 -17.01221,33.50958 -39.86692,33.50958 -22.33945,0 -36.7746,-10.65366 -43.81907,-24.57356"
         inkscape:connector-curvature="0"
         style="fill:#000000" />
    </g>
    <g
       id="g2772"
       transform="matrix(0.15745362,0,0,0.15745362,106.41018,116.14409)">
      <path
         id="path2752"
         d="M 255.55481,70.765714 232.31367,331.12545 127.84387,360.08791 23.661714,331.16624 0.44518681,70.765714 Z"
         inkscape:connector-curvature="0"
         style="fill:#e44d26" />
      <path
         id="path2754"
         d="m 128,337.95024 84.4167,-23.4036 19.8611,-222.489321 H 128 Z"
         inkscape:connector-curvature="0"
         style="fill:#f16529" />
      <path
         id="path2756"
         d="M 82.82022,155.93213 H 128 v -31.9374 H 47.917011 l 0.764483,8.56826 7.849495,88.00984 H 128 v -31.9367 H 85.738901 Z"
         inkscape:connector-curvature="0"
         style="fill:#ebebeb" />
      <path
         id="path2758"
         d="m 90.017758,236.54189 h -32.05978 l 4.474374,50.14576 65.420658,18.16123 0.14699,-0.0408 v -33.22796 l -0.13996,0.0373 -35.568524,-9.60422 -2.273758,-25.4713 z"
         inkscape:connector-curvature="0"
         style="fill:#ebebeb" />
      <path
         id="path2760"
         d="M 24.180747,0 H 40.410725 V 16.035165 H 55.257319 V 0 H 71.488 V 48.558418 H 55.258022 V 32.298198 H 40.411429 v 16.26022 H 24.18145 V 0 Z"
         inkscape:connector-curvature="0"
         style="fill:#000000" />
      <path
         id="path2762"
         d="M 92.830945,16.102681 H 78.542769 V 0 H 123.35684 V 16.102681 H 109.06233 V 48.558418 H 92.831648 V 16.102681 Z"
         inkscape:connector-curvature="0"
         style="fill:#000000" />
      <path
         id="path2764"
         d="M 130.46927,0 H 147.3927 L 157.8029,17.061978 168.20255,0 h 16.92976 V 48.558418 H 168.96914 V 24.490198 L 157.8029,41.755429 h -0.27921 L 146.34971,24.490198 v 24.06822 h -15.88044 z"
         inkscape:connector-curvature="0"
         style="fill:#000000" />
      <path
         id="path2766"
         d="m 193.20967,0 h 16.2349 v 32.50778 h 22.82409 v 16.050638 h -39.05899 z"
         inkscape:connector-curvature="0"
         style="fill:#000000" />
      <path
         id="path2768"
         d="m 127.88958,220.57283 h 39.32695 l -3.70708,41.41996 -35.61987,9.61407 v 33.22655 l 65.47271,-18.14576 0.48035,-5.39569 7.50488,-84.07983 0.77925,-8.576 h -74.23719 z"
         inkscape:connector-curvature="0"
         style="fill:#ffffff" />
      <path
         id="path2770"
         d="m 127.88958,155.85407 v 0.0781 h 77.14321 l 0.6407,-7.17855 1.45512,-16.19059 0.76379,-8.56826 h -80.00282 v 31.85934 z"
         inkscape:connector-curvature="0"
         style="fill:#ffffff" />
    </g>
    <g
       id="g2825"
       transform="matrix(0.16427817,0,0,0.16427817,283.16828,116.0098)">
      <path
         id="path2807"
         d="M 127.84387,360.08791 23.661714,331.16624 0.44518681,70.765714 H 255.55481 L 232.31367,331.12545 Z"
         inkscape:connector-curvature="0"
         style="fill:#264de4" />
      <path
         id="path2809"
         d="M 212.4167,314.54664 232.2778,92.057319 H 128 V 337.95024 Z"
         inkscape:connector-curvature="0"
         style="fill:#2965f1" />
      <path
         id="path2811"
         d="m 53.668571,188.63613 2.862418,31.9367 H 128 v -31.9367 z"
         inkscape:connector-curvature="0"
         style="fill:#ebebeb" />
      <path
         id="path2813"
         d="m 47.917011,123.99473 2.903209,31.9374 H 128 v -31.9374 z"
         inkscape:connector-curvature="0"
         style="fill:#ebebeb" />
      <path
         id="path2815"
         d="m 128,271.58013 -0.13996,0.0373 -35.568524,-9.60422 -2.273758,-25.4713 H 57.957978 L 62.432352,286.68767 127.85301,304.8489 128,304.8081 v -33.22796 z"
         inkscape:connector-curvature="0"
         style="fill:#ebebeb" />
      <path
         id="path2817"
         d="M 60.483516,0 H 99.164835 V 16.175824 H 76.659341 V 32.351648 H 99.164835 V 48.527473 H 60.483516 Z"
         inkscape:connector-curvature="0"
         style="fill:#000000" />
      <path
         id="path2819"
         d="m 106.9011,0 h 38.68132 v 14.065934 h -22.5055 v 2.813187 h 22.5055 V 49.230769 H 106.9011 v -14.76923 h 22.50549 V 31.648352 H 106.9011 Z"
         inkscape:connector-curvature="0"
         style="fill:#000000" />
      <path
         id="path2821"
         d="M 153.31868,0 H 192 v 14.065934 h -22.5055 v 2.813187 H 192 v 32.351648 h -38.68132 v -14.76923 h 22.5055 v -2.813187 h -22.5055 z"
         inkscape:connector-curvature="0"
         style="fill:#000000" />
      <path
         id="path2823"
         d="m 202.12677,188.63613 5.76563,-64.6414 h -80.00282 v 31.9374 h 45.00255 l -2.90602,32.704 h -42.09653 v 31.9367 h 39.32695 l -3.70708,41.41996 -35.61987,9.61407 v 33.22655 l 65.47271,-18.14576 0.48035,-5.39569 7.50488,-84.07983 z"
         inkscape:connector-curvature="0"
         style="fill:#ffffff" />
    </g>
    <g
       id="g2872"
       transform="matrix(0.25083878,0,0,0.25083878,183.25624,182.44971)">
      <ellipse
         id="ellipse2854"
         ry="67.300003"
         rx="128"
         cy="67.300003"
         cx="128"
         style="fill:url(#radialGradient-1)" />
      <ellipse
         id="ellipse2856"
         ry="62.299999"
         rx="123"
         cy="67.300003"
         cx="128"
         style="fill:#6181b6" />
      <g
         id="g2862">
        <path
           id="path2858"
           d="m 152.9,87.5 c 0,0 6.1,-31.4 6.1,-31.4 1.4,-7.1 0.2,-12.4 -3.4,-15.7 -3.5,-3.2 -9.5,-4.8 -18.3,-4.8 h -10.6 l 3,-15.6 c 0.1,-0.6 0,-1.2 -0.4,-1.7 -0.4,-0.5 -0.9,-0.7 -1.5,-0.7 h -14.6 c -1,0 -1.8,0.7 -2,1.6 l -6.5,33.3 c -0.6,-3.8 -2,-7 -4.4,-9.6 C 96,38 89.3,35.5 80.2,35.5 H 52.1 c -1,0 -1.8,0.7 -2,1.6 L 37,104.7 c -0.1,0.6 0,1.2 0.4,1.7 0.4,0.5 0.9,0.7 1.5,0.7 h 14.7 c 1,0 1.8,-0.7 2,-1.6 l 3.2,-16.3 h 10.9 c 5.7,0 10.6,-0.6 14.3,-1.8 3.9,-1.3 7.4,-3.4 10.5,-6.3 2.5,-2.3 4.6,-4.9 6.2,-7.7 l -2.6,13.5 c -0.1,0.6 0,1.2 0.4,1.7 0.4,0.5 0.9,0.7 1.5,0.7 h 14.6 c 1,0 1.8,-0.7 2,-1.6 l 7.2,-37 h 10 c 4.3,0 5.5,0.8 5.9,1.2 0.3,0.3 0.9,1.5 0.2,5.2 L 134.1,87 c -0.1,0.6 0,1.2 0.4,1.7 0.4,0.5 0.9,0.7 1.5,0.7 h 15 c 0.9,-0.3 1.7,-1 1.9,-1.9 z m -67.6,-26 c -0.9,4.7 -2.6,8.1 -5.1,10 -2.5,1.9 -6.6,2.9 -12,2.9 h -6.5 l 4.7,-24.2 h 8.4 c 6.2,0 8.7,1.3 9.7,2.4 1.3,1.6 1.6,4.7 0.8,8.9 z"
           inkscape:connector-curvature="0"
           style="fill:#ffffff" />
        <path
           id="path2860"
           d="M 215.3,42.9 C 211,38 204.3,35.5 195.2,35.5 h -28.3 c -1,0 -1.8,0.7 -2,1.6 l -13.1,67.5 c -0.1,0.6 0,1.2 0.4,1.7 0.4,0.5 0.9,0.7 1.5,0.7 h 14.7 c 1,0 1.8,-0.7 2,-1.6 l 3.2,-16.3 h 10.9 c 5.7,0 10.6,-0.6 14.3,-1.8 3.9,-1.3 7.4,-3.4 10.5,-6.3 2.6,-2.4 4.8,-5.1 6.4,-8 1.6,-2.9 2.8,-6.1 3.5,-9.6 1.7,-8.7 0.4,-15.5 -3.9,-20.5 z M 200,61.5 c -0.9,4.7 -2.6,8.1 -5.1,10 -2.5,1.9 -6.6,2.9 -12,2.9 h -6.5 l 4.7,-24.2 h 8.4 c 6.2,0 8.7,1.3 9.7,2.4 1.4,1.6 1.7,4.7 0.8,8.9 z"
           inkscape:connector-curvature="0"
           style="fill:#ffffff" />
      </g>
      <g
         id="g2870">
        <path
           id="path2864"
           d="m 74.8,48.2 c 5.6,0 9.3,1 11.2,3.1 1.9,2.1 2.3,5.6 1.3,10.6 -1,5.2 -3,9 -5.9,11.2 -2.9,2.2 -7.3,3.3 -13.2,3.3 H 59.3 L 64.8,48.2 Z M 39,105 h 14.7 l 3.5,-17.9 h 12.6 c 5.6,0 10.1,-0.6 13.7,-1.8 3.6,-1.2 6.8,-3.1 9.8,-5.9 2.5,-2.3 4.5,-4.8 6,-7.5 1.5,-2.7 2.6,-5.7 3.2,-9 1.6,-8 0.4,-14.2 -3.5,-18.7 C 95.1,39.7 88.9,37.5 80.4,37.5 H 52.1 Z"
           inkscape:connector-curvature="0"
           style="fill:#000004" />
        <path
           id="path2866"
           d="m 113.3,19.6 h 14.6 l -3.5,17.9 h 13 c 8.2,0 13.8,1.4 16.9,4.3 3.1,2.9 4,7.5 2.8,13.9 L 151,87.1 H 136.2 L 142,57.2 c 0.7,-3.4 0.4,-5.7 -0.7,-6.9 -1.1,-1.2 -3.6,-1.9 -7.3,-1.9 h -11.7 l -7.5,38.7 h -14.6 z"
           inkscape:connector-curvature="0"
           style="fill:#000004" />
        <path
           id="path2868"
           d="m 189.5,48.2 c 5.6,0 9.3,1 11.2,3.1 1.9,2.1 2.3,5.6 1.3,10.6 -1,5.2 -3,9 -5.9,11.2 -2.9,2.2 -7.3,3.3 -13.2,3.3 H 174 l 5.5,-28.2 z M 153.7,105 h 14.7 l 3.5,-17.9 h 12.6 c 5.6,0 10.1,-0.6 13.7,-1.8 3.6,-1.2 6.8,-3.1 9.8,-5.9 2.5,-2.3 4.5,-4.8 6,-7.5 1.5,-2.7 2.6,-5.7 3.2,-9 1.6,-8 0.4,-14.2 -3.5,-18.7 -3.9,-4.5 -10.1,-6.7 -18.6,-6.7 h -28.3 z"
           inkscape:connector-curvature="0"
           style="fill:#000004" />
      </g>
    </g>
    <g
       id="g2980"
       transform="matrix(0.19866971,0,0,0.19866971,457.42245,227.21694)">
      <path
         id="path2978"
         d="M 251.17224,116.59352 139.39875,4.828453 c -6.43232,-6.4379373 -16.8729,-6.4379373 -23.31364,0 L 92.875386,28.038172 122.31799,57.480781 c 6.84242,-2.311703 14.6876,-0.761205 20.14243,4.693627 5.48012,5.488538 7.01938,13.401134 4.6515,20.26602 l 28.37524,28.375232 c 6.86488,-2.36507 14.7859,-0.83423 20.26882,4.65712 7.66261,7.65979 7.66261,20.07501 0,27.74043 -7.66541,7.66541 -20.08063,7.66541 -27.74885,0 -5.76381,-5.76943 -7.18791,-14.23537 -4.26949,-21.3362 l -26.4624,-26.462396 -0.003,69.637586 c 1.8679,0.92693 3.63187,2.16002 5.18798,3.71052 7.66261,7.6598 7.66261,20.07502 0,27.74605 -7.66541,7.6626 -20.08625,7.6626 -27.74043,0 -7.6626,-7.67103 -7.6626,-20.08625 0,-27.74605 1.89318,-1.89037 4.08411,-3.32009 6.42109,-4.28072 V 94.195562 c -2.33698,-0.955016 -4.5251,-2.376306 -6.42109,-4.280722 -5.80594,-5.797515 -7.20195,-14.316827 -4.22735,-21.445747 L 81.471361,39.442197 4.8312561,116.07668 c -6.4407462,6.44356 -6.4407462,16.88414 0,23.32208 L 116.60475,251.16663 c 6.43513,6.43794 16.8729,6.43794 23.31645,0 L 251.17224,139.9184 c 6.43794,-6.44075 6.43794,-16.88695 0,-23.32488"
         inkscape:connector-curvature="0"
         style="fill:#de4c36" />
    </g>
    <g
       id="g3015"
       transform="matrix(0.27231713,0,0,0.27231713,356.77396,148.92575)">
      <path
         id="path2992"
         d="m 101.885,207.092 c 7.865,0 14.241,6.376 14.241,14.241 v 61.09 c 0,7.865 -6.376,14.24 -14.241,14.24 -7.864,0 -14.24,-6.375 -14.24,-14.24 v -61.09 c 0,-7.864 6.376,-14.24 14.24,-14.24 z"
         inkscape:connector-curvature="0"
         style="fill:#a4c639" />
      <path
         id="path2994"
         d="m 69.374,133.645 c -0.047,0.54 -0.088,1.086 -0.088,1.638 v 92.557 c 0,9.954 7.879,17.973 17.66,17.973 h 94.124 c 9.782,0 17.661,-8.02 17.661,-17.973 v -92.557 c 0,-0.552 -0.02,-1.1 -0.066,-1.638 z"
         inkscape:connector-curvature="0"
         style="fill:#a4c639" />
      <path
         id="path2996"
         d="m 166.133,207.092 c 7.865,0 14.241,6.376 14.241,14.241 v 61.09 c 0,7.865 -6.376,14.24 -14.241,14.24 -7.864,0 -14.24,-6.375 -14.24,-14.24 v -61.09 c 0,-7.864 6.376,-14.24 14.24,-14.24 z M 46.405,141.882 c 7.864,0 14.24,6.376 14.24,14.241 v 61.09 c 0,7.865 -6.376,14.241 -14.24,14.241 -7.865,0 -14.241,-6.376 -14.241,-14.24 v -61.09 c -0.001,-7.865 6.375,-14.242 14.241,-14.242 z m 175.209,0 c 7.864,0 14.24,6.376 14.24,14.241 v 61.09 c 0,7.865 -6.376,14.241 -14.24,14.241 -7.865,0 -14.241,-6.376 -14.241,-14.24 v -61.09 c 0,-7.865 6.376,-14.242 14.241,-14.242 z M 69.79,127.565 C 70.186,99.135 95,75.825 126.852,72.753 h 14.312 c 31.854,3.073 56.666,26.384 57.062,54.812 z"
         inkscape:connector-curvature="0"
         style="fill:#a4c639" />
      <path
         id="path2998"
         d="m 74.743,70.009 15.022,26.02 m 103.511,-26.02 -15.023,26.02"
         inkscape:connector-curvature="0"
         style="fill:none;stroke:#a4c639;stroke-width:3;stroke-linecap:round;stroke-linejoin:round" />
      <path
         id="path3000"
         d="m 114.878,102.087 c 0.012,3.974 -3.277,7.205 -7.347,7.216 -4.068,0.01 -7.376,-3.202 -7.388,-7.176 v -0.04 c -0.011,-3.975 3.278,-7.205 7.347,-7.216 4.068,-0.011 7.376,3.2 7.388,7.176 z m 54.996,0 c 0.012,3.974 -3.277,7.205 -7.347,7.216 -4.068,0.01 -7.376,-3.202 -7.388,-7.176 v -0.04 c -0.011,-3.975 3.278,-7.205 7.347,-7.216 4.068,-0.011 7.376,3.2 7.388,7.176 z"
         inkscape:connector-curvature="0"
         style="fill:#ffffff" />
    </g>
    <g
       id="g3110"
       transform="matrix(0.12712992,0,0,0.12712992,196.34659,55.478676)">
      <path
         id="path3081"
         d="m 285.104,430.945 h -2.037 v -1.14 h 5.486 v 1.14 h -2.025 v 5.688 h -1.424 z m 10.942,0.297 h -0.032 l -2.02,5.393 h -0.924 l -2.006,-5.393 h -0.024 v 5.393 h -1.343 v -6.828 h 1.976 l 1.86,4.835 1.854,-4.835 h 1.969 v 6.828 h -1.311 z"
         inkscape:connector-curvature="0"
         style="fill:#e76f00" />
      <path
         id="path3083"
         d="m 102.681,291.324 c 0,0 -14.178,8.245 10.09,11.035 29.4,3.354 44.426,2.873 76.825,-3.259 0,0 8.518,5.341 20.414,9.967 -72.63,31.128 -164.376,-1.803 -107.329,-17.743 m -8.875,-40.62 c 0,0 -15.902,11.771 8.384,14.283 31.406,3.24 56.208,3.505 99.125,-4.759 0,0 5.937,6.018 15.271,9.309 -87.815,25.678 -185.624,2.025 -122.78,-18.833"
         inkscape:connector-curvature="0"
         style="fill:#5382a1" />
      <path
         id="path3085"
         d="m 168.625,181.799 c 17.896,20.604 -4.701,39.146 -4.701,39.146 0,0 45.439,-23.458 24.571,-52.833 -19.491,-27.395 -34.438,-41.005 46.479,-87.934 0.001,-10e-4 -127.013,31.721 -66.349,101.621"
         inkscape:connector-curvature="0"
         style="fill:#e76f00" />
      <path
         id="path3087"
         d="m 264.684,321.369 c 0,0 10.492,8.646 -11.555,15.333 -41.923,12.7 -174.488,16.535 -211.314,0.507 -13.238,-5.76 11.587,-13.752 19.396,-15.429 8.144,-1.766 12.798,-1.437 12.798,-1.437 -14.722,-10.371 -95.157,20.363 -40.857,29.166 148.084,24.015 269.944,-10.814 231.532,-28.14 M 109.499,208.617 c 0,0 -67.431,16.016 -23.879,21.832 18.389,2.462 55.047,1.905 89.192,-0.956 27.906,-2.354 55.928,-7.358 55.928,-7.358 0,0 -9.84,4.214 -16.959,9.074 -68.475,18.01 -200.756,9.631 -162.674,-8.79 32.206,-15.568 58.392,-13.802 58.392,-13.802 m 120.963,67.614 c 69.608,-36.171 37.425,-70.932 14.96,-66.248 -5.506,1.146 -7.961,2.139 -7.961,2.139 0,0 2.045,-3.202 5.947,-4.588 44.441,-15.624 78.619,46.081 -14.346,70.521 0,0 1.079,-0.962 1.4,-1.824"
         inkscape:connector-curvature="0"
         style="fill:#5382a1" />
      <path
         id="path3089"
         d="m 188.495,4.399 c 0,0 38.55,38.562 -36.563,97.862 -60.233,47.567 -13.735,74.689 -0.025,105.678 -35.158,-31.723 -60.96,-59.647 -43.65,-85.637 25.406,-38.151 95.792,-56.648 80.238,-117.903"
         inkscape:connector-curvature="0"
         style="fill:#e76f00" />
      <path
         id="path3091"
         d="m 116.339,374.246 c 66.815,4.277 169.417,-2.373 171.846,-33.987 0,0 -4.67,11.984 -55.219,21.503 -57.027,10.731 -127.364,9.479 -169.081,2.601 0.002,-0.002 8.541,7.067 52.454,9.883"
         inkscape:connector-curvature="0"
         style="fill:#5382a1" />
      <path
         id="path3093"
         d="m 105.389,495.049 c -6.303,5.467 -12.96,8.536 -18.934,8.536 -8.527,0 -13.134,-5.113 -13.134,-13.314 0,-8.871 4.937,-15.357 24.739,-15.357 h 7.328 l 10e-4,20.135 m 17.392,19.623 V 453.93 c 0,-15.518 -8.85,-25.756 -30.188,-25.756 -12.457,0 -23.369,3.076 -32.238,6.999 l 2.56,10.752 c 6.983,-2.563 16.022,-4.949 24.894,-4.949 12.292,0 17.58,4.949 17.58,15.181 v 7.678 h -6.135 c -29.865,0 -43.337,11.593 -43.337,28.993 0,15.018 8.878,23.554 25.594,23.554 10.745,0 18.766,-4.437 26.264,-10.929 l 1.361,9.221 z m 58.043,0 h -21.691 l -26.106,-84.96 h 18.944 l 16.198,52.199 3.601,15.699 c 8.195,-22.698 13.992,-45.726 16.891,-67.898 h 18.427 c -4.938,27.976 -13.822,58.684 -26.264,84.96 m 83.214,-19.623 c -6.315,5.467 -12.983,8.536 -18.958,8.536 -8.512,0 -13.131,-5.113 -13.131,-13.314 0,-8.871 4.947,-15.357 24.748,-15.357 h 7.341 v 20.135 m 17.39,19.623 V 453.93 c 0,-15.518 -8.871,-25.756 -30.186,-25.756 -12.465,0 -23.381,3.076 -32.246,6.999 l 2.557,10.752 c 6.985,-2.563 16.041,-4.949 24.906,-4.949 12.283,0 17.579,4.949 17.579,15.181 v 7.678 h -6.146 c -29.873,0 -43.34,11.593 -43.34,28.993 0,15.018 8.871,23.554 25.584,23.554 10.752,0 18.77,-4.437 26.28,-10.929 l 1.366,9.221 z M 36.847,529.099 c -4.958,7.239 -12.966,12.966 -21.733,16.206 L 6.527,535.2 c 6.673,-3.424 12.396,-8.954 15.055,-14.104 2.3,-4.581 3.252,-10.485 3.252,-24.604 v -96.995 h 18.478 v 95.666 c -10e-4,18.875 -1.51,26.5 -6.465,33.936"
         inkscape:connector-curvature="0"
         style="fill:#e76f00" />
    </g>
    <g
       id="#000000ff"
       transform="matrix(0.18616053,0,0,0.18616053,95.263421,11.128836)">
      <path
         id="path3216"
         d="m 277.47,77.82 c 0,-13.03 -0.01,-26.05 0.01,-39.08 2.75,-0.01 5.51,-0.01 8.27,-0.01 0.04,12.3 0,24.6 0.02,36.9 6.18,-1.64 12.34,-3.32 18.52,-4.96 0.01,6.86 0.01,13.72 0,20.59 -6.17,1.67 -12.36,3.31 -18.52,4.99 0,16.77 -0.01,33.55 0,50.32 6.18,-1.64 12.34,-3.32 18.52,-4.96 0.01,6.86 0,13.72 0,20.58 -6.17,1.68 -12.35,3.31 -18.52,4.99 -0.02,12.14 0,24.28 -0.01,36.42 -2.76,0 -5.53,0 -8.29,-0.01 -0.01,-11.44 0.01,-22.89 0,-34.33 -12.32,3.31 -24.63,6.62 -36.94,9.96 -0.01,13.04 0.01,26.07 -0.01,39.11 -2.78,0 -5.56,0 -8.34,0 -0.02,-12.3 0.01,-24.61 -0.01,-36.91 -6.16,1.64 -12.3,3.32 -18.46,4.95 -0.01,-6.9 -0.01,-13.8 0,-20.7 6.15,-1.68 12.31,-3.3 18.46,-4.98 0,-16.73 0.02,-33.47 0,-50.2 -6.16,1.63 -12.3,3.31 -18.46,4.95 -0.01,-6.87 -0.01,-13.73 0,-20.59 6.15,-1.68 12.31,-3.3 18.46,-4.98 0.01,-12.15 0,-24.31 0.01,-36.47 2.78,0 5.56,0 8.35,0.01 0.01,11.45 -0.01,22.91 0,34.37 12.32,-3.31 24.63,-6.62 36.94,-9.96 m -36.93,30.57 c -0.02,16.74 -0.01,33.48 -0.01,50.22 12.32,-3.32 24.63,-6.64 36.94,-9.96 0,-16.74 0.01,-33.47 -0.01,-50.21 -12.31,3.3 -24.61,6.64 -36.92,9.95 z"
         inkscape:connector-curvature="0"
         style="opacity:1;fill:#000000" />
      <path
         id="path3218"
         d="m 90.61,48.54 c 14.64,-7.16 31.43,-9.11 47.52,-7.33 15.29,1.72 30.23,8.48 40.71,19.9 7.61,8.14 12.59,18.38 15.74,28.99 -7.32,1.74 -14.64,3.48 -21.97,5.2 C 168.74,82.86 161.36,70.65 149.35,64.66 136,58.08 119.97,58.65 106.05,63.12 90.65,68.18 79.9,82.13 75.18,97.19 c -5.42,17.27 -5.25,35.9 -2.15,53.59 2.48,14.26 9.52,28.14 21.54,36.63 13.16,9.65 30.88,11.34 46.39,7.41 11.88,-3.02 21.86,-11.61 27.4,-22.45 3.16,-5.87 5.21,-12.27 6.79,-18.73 7.44,1.9 14.9,3.74 22.33,5.7 -4.13,15.71 -11.67,31.2 -24.58,41.53 -13.32,10.95 -30.88,15.64 -47.94,15.1 C 105.79,215.78 85.45,210.46 71.9,196.13 58.31,181.41 50.73,161.83 48.46,142.09 46.58,123.56 47.65,104.27 54.77,86.88 61.48,70.28 74.54,56.4 90.61,48.54 Z"
         inkscape:connector-curvature="0"
         style="opacity:1;fill:#000000" />
    </g>
    <g
       id="g3240"
       transform="matrix(0.22904711,0,0,0.22904711,99.025859,225.69379)">
      <path
         id="path3234"
         d="M 10,10 H 230 V 224 H 10 Z"
         class="st0"
         inkscape:connector-curvature="0"
         style="fill:#261300" />
      <path
         id="path3236"
         d="M 0,0 V 234 H 240 V 0 Z M 10,10 H 230 V 224 H 10 Z"
         class="st1"
         inkscape:connector-curvature="0"
         style="fill:#ff7c00" />
      <path
         id="path3238"
         d="m 83.3,132.5 -7.9,30 c -0.2,0.8 -0.5,1 -1.5,1 H 59.2 c -1,0 -1.2,-0.3 -1,-1.5 L 86.6,62.6 c 0.5,-1.8 0.8,-3.4 1,-8.3 0,-0.7 0.3,-1 0.8,-1 h 21 c 0.7,0 1,0.2 1.2,1 l 31.8,107.9 c 0.2,0.8 0,1.3 -0.8,1.3 H 125 c -0.8,0 -1.3,-0.2 -1.5,-0.9 l -8.3,-30.1 z m 27.8,-16.2 C 108.3,105.2 101.7,81 99.2,69.3 H 99 c -2.1,11.7 -7.4,31.5 -11.6,47 z m 45,-55.6 c 0,-6.4 4.5,-10.2 10.2,-10.2 6.1,0 10.2,4.1 10.2,10.2 0,6.6 -4.3,10.2 -10.4,10.2 -5.8,0 -10,-3.6 -10,-10.2 z m 1.2,22.7 c 0,-0.8 0.3,-1.2 1.2,-1.2 h 15.7 c 0.8,0 1.2,0.3 1.2,1.2 v 78.9 c 0,0.8 -0.2,1.2 -1.2,1.2 h -15.5 c -1,0 -1.3,-0.5 -1.3,-1.3 V 83.4 Z"
         class="st1"
         inkscape:connector-curvature="0"
         style="fill:#ff7c00" />
    </g>
    <g
       id="g3270"
       transform="matrix(0.23084916,0,0,0.23084916,276.90536,225.16042)">
      <path
         id="path3256"
         d="M 10,10 H 230 V 224 H 10 Z"
         class="st0"
         inkscape:connector-curvature="0"
         style="fill:#001d26" />
      <path
         id="path3258"
         d="M 0,0 V 234 H 240 V 0 Z M 10,10 H 230 V 224 H 10 Z m 48,44.8 c 0,-0.7 1.4,-1.2 2.2,-1.2 6.4,-0.3 15.9,-0.5 25.8,-0.5 27.7,0 38.5,15.2 38.5,34.7 0,25.4 -18.4,36.3 -41,36.3 -3.8,0 -5.1,-0.2 -7.8,-0.2 v 38.4 c 0,0.8 -0.3,1.2 -1.2,1.2 H 59.2 c -0.8,0 -1.2,-0.3 -1.2,-1.2 z m 17.8,53.1 c 2.3,0.2 4.1,0.2 8.1,0.2 11.7,0 22.7,-4.1 22.7,-20 0,-12.7 -7.9,-19.1 -21.2,-19.1 -4,0 -7.8,0.2 -9.6,0.3 z m 86,-11.9 c -7.9,0 -10.6,4 -10.6,7.3 0,3.6 1.8,6.1 12.4,11.6 15.7,7.6 20.6,14.9 20.6,25.6 0,16 -12.2,24.6 -28.7,24.6 -8.7,0 -16.2,-1.8 -20.5,-4.3 -0.7,-0.3 -0.8,-0.8 -0.8,-1.6 v -14.7 c 0,-1 0.5,-1.3 1.2,-0.8 6.3,4.1 13.5,5.9 20.1,5.9 7.9,0 11.2,-3.3 11.2,-7.8 0,-3.6 -2.3,-6.8 -12.4,-12 -14.2,-6.8 -20.1,-13.7 -20.1,-25.2 0,-12.9 10.1,-23.6 27.6,-23.6 8.6,0 14.6,1.3 17.9,2.8 0.8,0.5 1,1.3 1,2 v 13.7 c 0,0.8 -0.5,1.3 -1.5,1 C 174.8,97.7 168.3,96 161.8,96 Z"
         class="st1"
         inkscape:connector-curvature="0"
         style="fill:#00c8ff" />
    </g>
  </g>
  <style
     id="style3232"
     type="text/css">
	.st0{fill:#261300;}
	.st1{fill:#FF7C00;}
</style>
  <style
     id="style3254"
     type="text/css">
	.st0{fill:#001D26;}
	.st1{fill:#00C8FF;}
</style>
</svg>
