<?xml version="1.0" encoding="UTF-8" standalone="no"?>
<svg
   xmlns:dc="http://purl.org/dc/elements/1.1/"
   xmlns:cc="http://creativecommons.org/ns#"
   xmlns:rdf="http://www.w3.org/1999/02/22-rdf-syntax-ns#"
   xmlns:svg="http://www.w3.org/2000/svg"
   xmlns="http://www.w3.org/2000/svg"
   id="svg8"
   version="1.1"
   viewBox="0 0 84.23555 97.010507"
   height="97.010506mm"
   width="84.23555mm">
  <defs
     id="defs2">
    <radialGradient
       id="radialGradient-1"
       cx="0.83660001"
       cy="-125.811"
       r="363.05649"
       gradientTransform="matrix(0.463,0,0,0.463,76.4644,81.9182)"
       gradientUnits="userSpaceOnUse">
      <stop
         offset="0"
         style="stop-color:#FFFFFF"
         id="stop2845" />
      <stop
         offset="0.5"
         style="stop-color:#4C6B97"
         id="stop2847" />
      <stop
         offset="1"
         style="stop-color:#231F20"
         id="stop2849" />
    </radialGradient>
  </defs>
  <metadata
     id="metadata5">
    <rdf:RDF>
      <cc:Work
         rdf:about="">
        <dc:format>image/svg+xml</dc:format>
        <dc:type
           rdf:resource="http://purl.org/dc/dcmitype/StillImage" />
        <dc:title></dc:title>
      </cc:Work>
    </rdf:RDF>
  </metadata>
  <g
     transform="translate(2.8112161,-6.3260862)"
     id="layer1">
    <path
       id="path2290-63-2-3-3"
       d="M 39.371154,6.3260862 81.424333,31.106976 v 47.24575 L 39.396204,103.33659 -2.8112161,78.364537 V 31.228086 Z"
       style="display:inline;fill:#334f78;fill-opacity:1;stroke:none;stroke-width:0.26458332px;stroke-linecap:butt;stroke-linejoin:miter;stroke-opacity:1" />
    <g
       transform="matrix(0.11496585,0,0,0.11496585,10.935022,27.357101)"
       id="g3240"
       style="opacity:1">
      <path
         style="fill:#261300"
         class="st0"
         d="M 10,10 H 230 V 224 H 10 Z"
         id="path3234" />
      <path
         style="fill:#ff7c00"
         class="st1"
         d="M 0,0 V 234 H 240 V 0 Z M 10,10 H 230 V 224 H 10 Z"
         id="path3236" />
      <path
         style="fill:#ff7c00"
         class="st1"
         d="m 83.3,132.5 -7.9,30 c -0.2,0.8 -0.5,1 -1.5,1 H 59.2 c -1,0 -1.2,-0.3 -1,-1.5 L 86.6,62.6 c 0.5,-1.8 0.8,-3.4 1,-8.3 0,-0.7 0.3,-1 0.8,-1 h 21 c 0.7,0 1,0.2 1.2,1 l 31.8,107.9 c 0.2,0.8 0,1.3 -0.8,1.3 H 125 c -0.8,0 -1.3,-0.2 -1.5,-0.9 l -8.3,-30.1 z m 27.8,-16.2 C 108.3,105.2 101.7,81 99.2,69.3 H 99 c -2.1,11.7 -7.4,31.5 -11.6,47 z m 45,-55.6 c 0,-6.4 4.5,-10.2 10.2,-10.2 6.1,0 10.2,4.1 10.2,10.2 0,6.6 -4.3,10.2 -10.4,10.2 -5.8,0 -10,-3.6 -10,-10.2 z m 1.2,22.7 c 0,-0.8 0.3,-1.2 1.2,-1.2 h 15.7 c 0.8,0 1.2,0.3 1.2,1.2 v 78.9 c 0,0.8 -0.2,1.2 -1.2,1.2 h -15.5 c -1,0 -1.3,-0.5 -1.3,-1.3 V 83.4 Z"
         id="path3238" />
    </g>
    <g
       transform="matrix(0.11491815,0,0,0.11491815,38.526828,54.259111)"
       id="g3270"
       style="opacity:1">
      <path
         style="fill:#001d26"
         class="st0"
         d="M 10,10 H 230 V 224 H 10 Z"
         id="path3256" />
      <path
         style="fill:#00c8ff"
         class="st1"
         d="M 0,0 V 234 H 240 V 0 Z M 10,10 H 230 V 224 H 10 Z m 48,44.8 c 0,-0.7 1.4,-1.2 2.2,-1.2 6.4,-0.3 15.9,-0.5 25.8,-0.5 27.7,0 38.5,15.2 38.5,34.7 0,25.4 -18.4,36.3 -41,36.3 -3.8,0 -5.1,-0.2 -7.8,-0.2 v 38.4 c 0,0.8 -0.3,1.2 -1.2,1.2 H 59.2 c -0.8,0 -1.2,-0.3 -1.2,-1.2 z m 17.8,53.1 c 2.3,0.2 4.1,0.2 8.1,0.2 11.7,0 22.7,-4.1 22.7,-20 0,-12.7 -7.9,-19.1 -21.2,-19.1 -4,0 -7.8,0.2 -9.6,0.3 z m 86,-11.9 c -7.9,0 -10.6,4 -10.6,7.3 0,3.6 1.8,6.1 12.4,11.6 15.7,7.6 20.6,14.9 20.6,25.6 0,16 -12.2,24.6 -28.7,24.6 -8.7,0 -16.2,-1.8 -20.5,-4.3 -0.7,-0.3 -0.8,-0.8 -0.8,-1.6 v -14.7 c 0,-1 0.5,-1.3 1.2,-0.8 6.3,4.1 13.5,5.9 20.1,5.9 7.9,0 11.2,-3.3 11.2,-7.8 0,-3.6 -2.3,-6.8 -12.4,-12 -14.2,-6.8 -20.1,-13.7 -20.1,-25.2 0,-12.9 10.1,-23.6 27.6,-23.6 8.6,0 14.6,1.3 17.9,2.8 0.8,0.5 1,1.3 1,2 v 13.7 c 0,0.8 -0.5,1.3 -1.5,1 C 174.8,97.7 168.3,96 161.8,96 Z"
         id="path3258" />
    </g>
    <g
       transform="matrix(0.114908,0,0,0.114908,38.529265,27.37064)"
       id="g1076">
      <path
         style="fill:#2e001e"
         class="st0"
         d="M 10,10 H 230 V 224 H 10 Z"
         id="path1059" />
      <path
         style="fill:#ff2bc2"
         class="st1"
         d="M 0,0 V 234 H 240 V 0 Z M 10,10 H 230 V 224 H 10 Z"
         id="path1061" />
      <path
         style="fill:#ff2bc2"
         class="st1"
         d="m 174.3,98.3 c -1.5,-0.7 -3.4,-1 -5.8,-1 -12.6,0 -21,9.7 -21,25.8 0,18.4 8.6,25.8 19.8,25.8 2.4,0 5,-0.3 6.9,-1.1 V 98.3 Z m -44.8,25.6 c 0,-23.3 15,-41.5 39.6,-41.5 2.1,0 3.2,0 5.2,0.2 v -26 c 0,-0.6 0.5,-1 1,-1 h 16.1 c 0.8,0 1,0.3 1,0.8 v 91.4 c 0,2.7 0,6.1 0.5,9.8 0,0.7 0,0.8 -0.6,1.1 -8.4,4 -17.2,5.8 -25.6,5.8 -21.7,0 -37.2,-13.4 -37.2,-40.6 z m -34.1,-16.2 28,54.3 c 0.5,0.8 0.2,1.6 -0.6,1.6 h -17.4 c -1.1,0 -1.6,-0.3 -2.1,-1.3 -6.4,-13.2 -12.9,-26.9 -19.6,-41.1 h -0.2 c -6,13.4 -12.6,28 -19,41.2 -0.5,0.8 -1,1.1 -1.8,1.1 H 46.1 c -1,0 -1.1,-0.8 -0.6,-1.4 L 72.9,109.4 46.4,57 c -0.6,-0.8 0,-1.5 0.7,-1.5 h 17.2 c 1,0 1.5,0.2 1.8,1.1 6.3,13.3 12.7,26.4 18.7,39.8 H 85 c 5.8,-13.2 12.2,-26.5 18.3,-39.6 0.5,-0.8 0.8,-1.3 1.8,-1.3 h 16.1 c 0.8,0 1.1,0.6 0.6,1.5 z"
         id="path1063" />
    </g>
    <path
       style="clip-rule:evenodd;fill:#ffffff;fill-rule:evenodd;stroke-width:0.14122984"
       d="M 10.967769,54.25911 H 38.526826 V 81.149956 H 10.967769 Z"
       id="path1078-7-6" />
    <path
       style="clip-rule:evenodd;fill:#cc2229;fill-rule:evenodd;stroke-width:0.20308666"
       d="m 24.62244,61.333336 c 0.02887,0.02286 6.455189,11.542778 6.449006,11.532873 h -4.211745 c 0,-0.03547 -1.994879,-3.755771 -1.974044,-3.775215 h -4.540474 c 0.04105,0.0097 4.340951,-7.796185 4.277257,-7.757658 z M 10.935023,54.259107 h 9.870623 c 0.02867,-0.0049 -9.805114,18.605844 -9.837877,18.581538 2.35e-4,-0.02611 -0.02248,-18.594682 -0.03275,-18.581538 z m 17.384863,0 h 10.20694 l -0.007,18.59144 c 0.006,0.05977 -10.199838,-18.59144 -10.199838,-18.59144 z"
       id="path1080-0-7" />
    <path
       d="m 14.619118,74.264674 2.20164,6.688864 H 15.21645 l -0.377443,-1.251787 h -1.992106 l -0.367092,1.251787 h -1.60408 l 2.20164,-6.688864 z m -0.08395,4.300087 -0.692095,-2.503568 -0.691865,2.503568 z m 5.893049,2.388613 -0.0421,-0.582949 h -0.05244 c -0.220348,0.45901 -0.691865,0.764527 -1.28966,0.764527 -1.41547,0 -2.013033,-1.1752 -2.013033,-2.627668 0,-1.24215 0.440467,-2.589623 2.033966,-2.589623 0.555697,0 0.817907,0.143532 1.216284,0.515998 v -2.168985 h 1.415474 v 6.688864 h -1.2685 z M 19.4217,76.901813 c -0.388025,0 -0.922563,0.267959 -0.922563,1.624576 0,0.630463 0.115236,1.643353 0.922563,1.643353 0.775818,0 0.922566,-0.90773 0.922566,-1.643353 0,-1.356617 -0.545123,-1.624576 -0.922566,-1.624576 z m 3.272099,1.615104 c 0,-1.500313 0.733961,-2.599256 2.401059,-2.599256 1.656525,0 2.400832,1.098943 2.400832,2.599256 0,1.519417 -0.754658,2.618035 -2.400832,2.618035 -1.65652,0 -2.401059,-1.098782 -2.401059,-2.618035 z m 3.334436,0 c 0,-1.318733 -0.388257,-1.624574 -0.933377,-1.624574 -0.429882,0 -0.93314,0.229258 -0.93314,1.624574 0,1.423728 0.503258,1.643354 0.93314,1.643354 0.607915,0 0.933377,-0.401205 0.933377,-1.643354 z m 3.710495,2.436457 H 28.47 v -6.6887 h 1.425826 v 2.226464 c 0.293257,-0.477788 0.848959,-0.573477 1.205704,-0.573477 1.499193,0 2.044544,1.118214 2.044544,2.589623 0,1.461936 -0.534541,2.627668 -2.034193,2.627668 -0.618496,0 -0.985588,-0.21979 -1.289659,-0.764527 h -0.04186 z m 1.01664,-0.793103 c 0.775818,0 0.922794,-0.907729 0.922794,-1.643354 0,-1.357105 -0.544887,-1.624574 -0.922794,-1.624574 -0.387793,0 -0.922335,0.267633 -0.922335,1.624574 2.02e-4,0.630463 0.115236,1.643354 0.922335,1.643354 z m 7.760256,-0.61136 c -0.356741,1.471573 -1.509771,1.586041 -2.285821,1.586041 -0.870125,0 -2.358967,-0.229261 -2.358967,-2.618035 0,-1.662949 0.964425,-2.599256 2.463618,-2.599256 0.943954,0 2.275475,0.372793 2.275475,2.694945 v 0.267634 h -3.27141 c 0,1.146462 0.555702,1.280195 0.954075,1.280195 0.324772,0 0.660352,-0.06662 0.796978,-0.61136 h 1.426052 z m -1.373838,-1.481042 c -0.04186,-0.984151 -0.377446,-1.175526 -0.848961,-1.175526 -0.807331,0 -0.943497,0.812368 -0.954075,1.175526 z"
       id="path1179-9"
       style="clip-rule:evenodd;fill-rule:evenodd;stroke-width:0.19379932" />
  </g>
  <style
     id="style1057">.st0{fill:#2e001e}.st1{fill:#ff2bc2}</style>
</svg>
