<?xml version="1.0" encoding="UTF-8" standalone="no"?>
<svg
   xmlns:dc="http://purl.org/dc/elements/1.1/"
   xmlns:cc="http://creativecommons.org/ns#"
   xmlns:rdf="http://www.w3.org/1999/02/22-rdf-syntax-ns#"
   xmlns:svg="http://www.w3.org/2000/svg"
   xmlns="http://www.w3.org/2000/svg"
   id="svg8"
   version="1.1"
   viewBox="0 0 84.235542 97.010499"
   height="97.010498mm"
   width="84.235542mm">
  <defs
     id="defs2">
    <radialGradient
       id="radialGradient-1"
       cx="0.83660001"
       cy="-125.811"
       r="363.05649"
       gradientTransform="matrix(0.463,0,0,0.463,76.4644,81.9182)"
       gradientUnits="userSpaceOnUse">
      <stop
         offset="0"
         style="stop-color:#FFFFFF"
         id="stop2845" />
      <stop
         offset="0.5"
         style="stop-color:#4C6B97"
         id="stop2847" />
      <stop
         offset="1"
         style="stop-color:#231F20"
         id="stop2849" />
    </radialGradient>
  </defs>
  <metadata
     id="metadata5">
    <rdf:RDF>
      <cc:Work
         rdf:about="">
        <dc:format>image/svg+xml</dc:format>
        <dc:type
           rdf:resource="http://purl.org/dc/dcmitype/StillImage" />
        <dc:title></dc:title>
      </cc:Work>
    </rdf:RDF>
  </metadata>
  <g
     transform="translate(2.2708224,-5.067861)"
     id="layer1">
    <path
       id="path2290-63-2-6"
       d="M 39.911538,5.067861 81.96472,29.848752 V 77.094493 L 39.936589,102.07836 -2.2708224,77.106302 v -47.13644 z"
       style="display:inline;fill:#334f78;fill-opacity:1;stroke:none;stroke-width:0.26458332px;stroke-linecap:butt;stroke-linejoin:miter;stroke-opacity:1" />
    <g
       transform="matrix(0.27231713,0,0,0.27231713,3.9831606,3.333351)"
       id="g3015"
       style="opacity:1">
      <path
         style="fill:#a4c639"
         d="m 101.885,207.092 c 7.865,0 14.241,6.376 14.241,14.241 v 61.09 c 0,7.865 -6.376,14.24 -14.241,14.24 -7.864,0 -14.24,-6.375 -14.24,-14.24 v -61.09 c 0,-7.864 6.376,-14.24 14.24,-14.24 z"
         id="path2992" />
      <path
         style="fill:#a4c639"
         d="m 69.374,133.645 c -0.047,0.54 -0.088,1.086 -0.088,1.638 v 92.557 c 0,9.954 7.879,17.973 17.66,17.973 h 94.124 c 9.782,0 17.661,-8.02 17.661,-17.973 v -92.557 c 0,-0.552 -0.02,-1.1 -0.066,-1.638 z"
         id="path2994" />
      <path
         style="fill:#a4c639"
         d="m 166.133,207.092 c 7.865,0 14.241,6.376 14.241,14.241 v 61.09 c 0,7.865 -6.376,14.24 -14.241,14.24 -7.864,0 -14.24,-6.375 -14.24,-14.24 v -61.09 c 0,-7.864 6.376,-14.24 14.24,-14.24 z M 46.405,141.882 c 7.864,0 14.24,6.376 14.24,14.241 v 61.09 c 0,7.865 -6.376,14.241 -14.24,14.241 -7.865,0 -14.241,-6.376 -14.241,-14.24 v -61.09 c -0.001,-7.865 6.375,-14.242 14.241,-14.242 z m 175.209,0 c 7.864,0 14.24,6.376 14.24,14.241 v 61.09 c 0,7.865 -6.376,14.241 -14.24,14.241 -7.865,0 -14.241,-6.376 -14.241,-14.24 v -61.09 c 0,-7.865 6.376,-14.242 14.241,-14.242 z M 69.79,127.565 C 70.186,99.135 95,75.825 126.852,72.753 h 14.312 c 31.854,3.073 56.666,26.384 57.062,54.812 z"
         id="path2996" />
      <path
         style="fill:none;stroke:#a4c639;stroke-width:3;stroke-linecap:round;stroke-linejoin:round"
         d="m 74.743,70.009 15.022,26.02 m 103.511,-26.02 -15.023,26.02"
         id="path2998" />
      <path
         style="fill:#ffffff"
         d="m 114.878,102.087 c 0.012,3.974 -3.277,7.205 -7.347,7.216 -4.068,0.01 -7.376,-3.202 -7.388,-7.176 v -0.04 c -0.011,-3.975 3.278,-7.205 7.347,-7.216 4.068,-0.011 7.376,3.2 7.388,7.176 z m 54.996,0 c 0.012,3.974 -3.277,7.205 -7.347,7.216 -4.068,0.01 -7.376,-3.202 -7.388,-7.176 v -0.04 c -0.011,-3.975 3.278,-7.205 7.347,-7.216 4.068,-0.011 7.376,3.2 7.388,7.176 z"
         id="path3000" />
    </g>
  </g>
</svg>
