<?xml version="1.0" encoding="UTF-8" standalone="no"?>
<svg
   xmlns:dc="http://purl.org/dc/elements/1.1/"
   xmlns:cc="http://creativecommons.org/ns#"
   xmlns:rdf="http://www.w3.org/1999/02/22-rdf-syntax-ns#"
   xmlns:svg="http://www.w3.org/2000/svg"
   xmlns="http://www.w3.org/2000/svg"
   id="svg8"
   version="1.1"
   viewBox="0 0 84.235542 97.010468"
   height="97.010468mm"
   width="84.235542mm">
  <defs
     id="defs2" />
  <metadata
     id="metadata5">
    <rdf:RDF>
      <cc:Work
         rdf:about="">
        <dc:format>image/svg+xml</dc:format>
        <dc:type
           rdf:resource="http://purl.org/dc/dcmitype/StillImage" />
        <dc:title></dc:title>
      </cc:Work>
    </rdf:RDF>
  </metadata>
  <g
     transform="translate(-0.0531465,-5.9583414)"
     id="layer1">
    <path
       id="path2290-4"
       d="M 42.235509,5.9583414 84.28869,30.739239 V 77.984965 L 42.260559,102.96881 0.0531465,77.996776 V 30.860344 Z"
       style="display:inline;fill:#334f78;fill-opacity:1;stroke:none;stroke-width:0.26458332px;stroke-linecap:butt;stroke-linejoin:miter;stroke-opacity:1" />
    <path
       style="opacity:1;fill:#5c8dbc;stroke-width:0.26458332"
       d="M 75.713486,39.034748 C 75.712957,37.756811 75.439643,36.627569 74.886928,35.6584 74.344003,34.705371 73.530939,33.906594 72.440326,33.275034 63.437878,28.084174 54.426699,22.909189 45.427161,17.713037 c -2.426229,-1.400704 -4.778639,-1.34964 -7.186877,0.07117 -3.583252,2.113227 -21.523326,12.391496 -26.869232,15.487913 -2.201598,1.274498 -3.2728958,3.225006 -3.273425,5.760244 -0.00344,10.439135 0,20.878006 -0.00344,31.317406 5.291e-4,1.249892 0.262202,2.357173 0.790575,3.31179 0.54319,0.981868 1.367632,1.802606 2.48338,2.448454 5.346169,3.096419 23.288626,13.373894 26.871083,15.48765 2.409296,1.421606 4.761706,1.472406 7.18873,0.07117 8.999802,-5.196417 18.01151,-10.371138 27.015281,-15.561998 1.115747,-0.645583 1.94019,-1.46685 2.483379,-2.447925 0.52758,-0.954617 0.789782,-2.061898 0.790311,-3.312054 0,0 0,-20.872715 -0.0034,-31.312115"
       id="path2436" />
    <path
       style="opacity:1;fill:#1a4674;stroke-width:0.26458332"
       d="M 42.009009,54.589338 8.8847625,73.661563 c 0.5431895,0.981868 1.3676315,1.802606 2.4833795,2.448454 5.34617,3.096419 23.288626,13.373894 26.871084,15.48765 2.409296,1.421606 4.761706,1.472406 7.188729,0.07117 8.999802,-5.196417 18.011511,-10.371138 27.015281,-15.561998 1.115748,-0.645583 1.94019,-1.46685 2.48338,-2.447925 L 42.009009,54.589338"
       id="path2438" />
    <path
       style="opacity:1;fill:#1b598e;stroke-width:0.26458332"
       d="M 75.713486,39.034748 C 75.712957,37.756811 75.439643,36.627569 74.886928,35.6584 L 42.009009,54.589338 74.926616,73.658917 c 0.527579,-0.954617 0.789781,-2.061898 0.79031,-3.312054 0,0 0,-20.872715 -0.0034,-31.312115"
       id="path2442" />
    <path
       style="opacity:1;fill:#ffffff;stroke-width:0.26458332"
       d="m 73.903472,55.952471 h -2.572279 v 2.572808 H 68.758384 V 55.952471 H 66.18637 v -2.572015 h 2.572014 v -2.572279 h 2.572809 v 2.572279 h 2.572279 v 2.572015"
       id="path2444" />
    <path
       style="opacity:1;fill:#ffffff;stroke-width:0.26458332"
       d="m 64.517378,55.952471 h -2.572014 v 2.572808 h -2.57228 v -2.572808 h -2.572279 v -2.572015 h 2.572279 v -2.572279 h 2.57228 v 2.572279 h 2.572014 v 2.572015"
       id="path2446" />
    <path
       style="opacity:1;fill:#ffffff;stroke-width:0.26458332"
       d="m 51.649632,60.173898 c -1.9177,3.400954 -5.561806,5.69939 -9.744075,5.69939 -4.156604,0 -7.780073,-2.269596 -9.707562,-5.634567 -0.936361,-1.635125 -1.474788,-3.528219 -1.474788,-5.547783 0,-6.17564 5.006711,-11.182086 11.18235,-11.182086 4.129882,0 7.7343,2.241286 9.671315,5.571861 l 9.773973,-5.628217 c -3.884877,-6.706129 -11.1379,-11.217803 -19.445288,-11.217803 -12.402608,0 -22.456511,10.054166 -22.456511,22.456245 0,4.068762 1.08241,7.884318 2.974181,11.175471 3.875088,6.741583 11.148749,11.281039 19.48233,11.281039 8.348927,0 15.633965,-4.557712 19.503496,-11.319139 l -9.759421,-5.654411"
       id="path2448" />
  </g>
</svg>
