<?xml version="1.0" encoding="UTF-8" standalone="no"?>
<svg
   xmlns:dc="http://purl.org/dc/elements/1.1/"
   xmlns:cc="http://creativecommons.org/ns#"
   xmlns:rdf="http://www.w3.org/1999/02/22-rdf-syntax-ns#"
   xmlns:svg="http://www.w3.org/2000/svg"
   xmlns="http://www.w3.org/2000/svg"
   id="svg8"
   version="1.1"
   viewBox="0 0 84.235542 97.010483"
   height="97.010483mm"
   width="84.235542mm">
  <defs
     id="defs2" />
  <metadata
     id="metadata5">
    <rdf:RDF>
      <cc:Work
         rdf:about="">
        <dc:format>image/svg+xml</dc:format>
        <dc:type
           rdf:resource="http://purl.org/dc/dcmitype/StillImage" />
        <dc:title></dc:title>
      </cc:Work>
    </rdf:RDF>
  </metadata>
  <g
     transform="translate(-0.97151348,-7.3459506)"
     id="layer1">
    <path
       id="path2290"
       d="m 43.153879,7.3459506 42.05318,24.7808974 v 47.24572 L 43.178929,104.35643 0.97151348,79.384388 V 32.247953 Z"
       style="display:inline;fill:#334f78;fill-opacity:1;stroke:none;stroke-width:0.26458332px;stroke-linecap:butt;stroke-linejoin:miter;stroke-opacity:1" />
    <path
       style="opacity:1;fill:#000000;stroke-width:0.18616053"
       d="m 63.975089,46.691681 c 0,-2.425671 -0.002,-4.849482 0.002,-7.275153 0.51194,-0.0019 1.02574,-0.0019 1.53955,-0.0019 0.007,2.289776 0,4.579549 0.004,6.869324 1.15047,-0.305303 2.29722,-0.618053 3.44769,-0.923356 0.002,1.277062 0.002,2.554121 0,3.833045 -1.14861,0.310888 -2.30094,0.616191 -3.44769,0.928942 0,3.121915 -0.002,6.245685 0,9.367595 1.15047,-0.3053 2.29722,-0.61805 3.44769,-0.92335 0.002,1.27706 0,2.55412 0,3.83118 -1.14861,0.31275 -2.29908,0.61619 -3.44769,0.92894 -0.004,2.25999 0,4.51998 -0.002,6.77997 -0.5138,0 -1.02947,0 -1.54327,-0.002 -0.002,-2.12968 0.002,-4.26122 0,-6.3909 -2.2935,0.6162 -4.58514,1.23239 -6.87677,1.85416 -0.002,2.42754 0.002,4.85321 -0.002,7.28074 -0.51753,0 -1.03505,0 -1.55258,0 -0.004,-2.28977 0.002,-4.58141 -0.002,-6.87118 -1.14675,0.3053 -2.28977,0.61805 -3.43652,0.92149 -0.002,-1.28451 -0.002,-2.56901 0,-3.85352 1.14488,-0.31275 2.29163,-0.61433 3.43652,-0.92708 0,-3.11447 0.004,-6.23079 0,-9.34526 -1.14675,0.30344 -2.28977,0.61619 -3.43652,0.9215 -0.002,-1.27893 -0.002,-2.555989 0,-3.83305 1.14488,-0.312751 2.29163,-0.614331 3.43652,-0.927082 0.002,-2.261849 0,-4.52556 0.002,-6.789274 0.51753,0 1.03505,0 1.55444,0.0019 0.002,2.131539 -0.002,4.264937 0,6.398336 2.2935,-0.61619 4.58513,-1.232381 6.87677,-1.854157 m -6.87491,5.690927 c -0.004,3.11633 -0.002,6.23266 -0.002,9.34898 2.2935,-0.61805 4.58514,-1.2361 6.87677,-1.85416 0,-3.11632 0.002,-6.23079 -0.002,-9.347117 -2.29163,0.614328 -4.58141,1.236107 -6.87305,1.852297 z"
       id="path3216" />
    <path
       style="opacity:1;fill:#000000;stroke-width:0.18616053"
       d="m 29.189129,41.240899 c 2.72539,-1.332907 5.85103,-1.695921 8.84635,-1.364557 2.8464,0.320196 5.62763,1.578642 7.5786,3.704595 1.41668,1.515349 2.34376,3.421632 2.93016,5.396794 -1.36269,0.323919 -2.72539,0.64784 -4.08994,0.968036 -0.72044,-2.315837 -2.09431,-4.588859 -4.3301,-5.703959 -2.48524,-1.224936 -5.46939,-1.118825 -8.06075,-0.286686 -2.86687,0.941972 -4.8681,3.53891 -5.74677,6.342488 -1.00899,3.214988 -0.97735,6.683168 -0.40025,9.976338 0.46168,2.65465 1.77225,5.23856 4.0099,6.81907 2.44987,1.79645 5.74864,2.11106 8.63599,1.37944 2.21158,-0.5622 4.06946,-2.16132 5.10079,-4.1793 0.58827,-1.09276 0.9699,-2.28419 1.26404,-3.48679 1.38503,0.35371 2.77379,0.69624 4.15696,1.06112 -0.76884,2.92458 -2.17249,5.80821 -4.57583,7.73125 -2.47966,2.03845 -5.74863,2.91155 -8.92453,2.81102 -3.5687,-0.0354 -7.3552,-1.02574 -9.87768,-3.69342 -2.52992,-2.74029 -3.94102,-6.38531 -4.3636,-10.06012 -0.34998,-3.44955 -0.15079,-7.040591 1.17467,-10.277924 1.24914,-3.090265 3.68039,-5.674172 6.67199,-7.137395 z"
       id="path3218" />
  </g>
</svg>
