<?xml version="1.0" encoding="UTF-8" standalone="no"?>
<svg
   xmlns:dc="http://purl.org/dc/elements/1.1/"
   xmlns:cc="http://creativecommons.org/ns#"
   xmlns:rdf="http://www.w3.org/1999/02/22-rdf-syntax-ns#"
   xmlns:svg="http://www.w3.org/2000/svg"
   xmlns="http://www.w3.org/2000/svg"
   id="svg8"
   version="1.1"
   viewBox="0 0 84.235542 97.010491"
   height="97.01049mm"
   width="84.235542mm">
  <defs
     id="defs2" />
  <metadata
     id="metadata5">
    <rdf:RDF>
      <cc:Work
         rdf:about="">
        <dc:format>image/svg+xml</dc:format>
        <dc:type
           rdf:resource="http://purl.org/dc/dcmitype/StillImage" />
        <dc:title></dc:title>
      </cc:Work>
    </rdf:RDF>
  </metadata>
  <g
     transform="translate(0.64965509,-6.5848811)"
     id="layer1">
    <path
       id="path2290-63-2"
       d="M 41.532701,6.5848811 83.585891,31.365771 V 78.611508 L 41.557751,103.59537 -0.64965509,78.623318 V 31.486881 Z"
       style="display:inline;fill:#334f78;fill-opacity:1;stroke:none;stroke-width:0.26458332px;stroke-linecap:butt;stroke-linejoin:miter;stroke-opacity:1" />
    <g
       transform="matrix(0.16427817,0,0,0.16427817,21.139611,27.290449)"
       id="g2825"
       style="opacity:1">
      <path
         style="fill:#264de4"
         d="M 127.84387,360.08791 23.661714,331.16624 0.44518681,70.765714 H 255.55481 L 232.31367,331.12545 Z"
         id="path2807" />
      <path
         style="fill:#2965f1"
         d="M 212.4167,314.54664 232.2778,92.057319 H 128 V 337.95024 Z"
         id="path2809" />
      <path
         style="fill:#ebebeb"
         d="m 53.668571,188.63613 2.862418,31.9367 H 128 v -31.9367 z"
         id="path2811" />
      <path
         style="fill:#ebebeb"
         d="m 47.917011,123.99473 2.903209,31.9374 H 128 v -31.9374 z"
         id="path2813" />
      <path
         style="fill:#ebebeb"
         d="m 128,271.58013 -0.13996,0.0373 -35.568524,-9.60422 -2.273758,-25.4713 H 57.957978 L 62.432352,286.68767 127.85301,304.8489 128,304.8081 v -33.22796 z"
         id="path2815" />
      <path
         style="fill:#000000"
         d="M 60.483516,0 H 99.164835 V 16.175824 H 76.659341 V 32.351648 H 99.164835 V 48.527473 H 60.483516 Z"
         id="path2817" />
      <path
         style="fill:#000000"
         d="m 106.9011,0 h 38.68132 v 14.065934 h -22.5055 v 2.813187 h 22.5055 V 49.230769 H 106.9011 v -14.76923 h 22.50549 V 31.648352 H 106.9011 Z"
         id="path2819" />
      <path
         style="fill:#000000"
         d="M 153.31868,0 H 192 v 14.065934 h -22.5055 v 2.813187 H 192 v 32.351648 h -38.68132 v -14.76923 h 22.5055 v -2.813187 h -22.5055 z"
         id="path2821" />
      <path
         style="fill:#ffffff"
         d="m 202.12677,188.63613 5.76563,-64.6414 h -80.00282 v 31.9374 h 45.00255 l -2.90602,32.704 h -42.09653 v 31.9367 h 39.32695 l -3.70708,41.41996 -35.61987,9.61407 v 33.22655 l 65.47271,-18.14576 0.48035,-5.39569 7.50488,-84.07983 z"
         id="path2823" />
    </g>
  </g>
</svg>
