<?xml version="1.0" encoding="UTF-8" standalone="no"?>
<svg
   xmlns:dc="http://purl.org/dc/elements/1.1/"
   xmlns:cc="http://creativecommons.org/ns#"
   xmlns:rdf="http://www.w3.org/1999/02/22-rdf-syntax-ns#"
   xmlns:svg="http://www.w3.org/2000/svg"
   xmlns="http://www.w3.org/2000/svg"
   id="svg8"
   version="1.1"
   viewBox="0 0 84.235542 97.010491"
   height="97.01049mm"
   width="84.235542mm">
  <defs
     id="defs2" />
  <metadata
     id="metadata5">
    <rdf:RDF>
      <cc:Work
         rdf:about="">
        <dc:format>image/svg+xml</dc:format>
        <dc:type
           rdf:resource="http://purl.org/dc/dcmitype/StillImage" />
        <dc:title></dc:title>
      </cc:Work>
    </rdf:RDF>
  </metadata>
  <g
     transform="translate(0.48724154,-6.0826113)"
     id="layer1">
    <path
       id="path2290-63"
       d="m 41.695118,6.0826113 42.05318,24.7808997 v 47.24573 L 41.720168,103.0931 -0.48724154,78.121051 v -47.13644 z"
       style="display:inline;fill:#334f78;fill-opacity:1;stroke:none;stroke-width:0.26458332px;stroke-linecap:butt;stroke-linejoin:miter;stroke-opacity:1" />
    <g
       transform="matrix(0.12712992,0,0,0.12712992,22.563248,19.695921)"
       id="g3110"
       style="opacity:1">
      <path
         style="fill:#e76f00"
         d="m 285.104,430.945 h -2.037 v -1.14 h 5.486 v 1.14 h -2.025 v 5.688 h -1.424 z m 10.942,0.297 h -0.032 l -2.02,5.393 h -0.924 l -2.006,-5.393 h -0.024 v 5.393 h -1.343 v -6.828 h 1.976 l 1.86,4.835 1.854,-4.835 h 1.969 v 6.828 h -1.311 z"
         id="path3081" />
      <path
         style="fill:#5382a1"
         d="m 102.681,291.324 c 0,0 -14.178,8.245 10.09,11.035 29.4,3.354 44.426,2.873 76.825,-3.259 0,0 8.518,5.341 20.414,9.967 -72.63,31.128 -164.376,-1.803 -107.329,-17.743 m -8.875,-40.62 c 0,0 -15.902,11.771 8.384,14.283 31.406,3.24 56.208,3.505 99.125,-4.759 0,0 5.937,6.018 15.271,9.309 -87.815,25.678 -185.624,2.025 -122.78,-18.833"
         id="path3083" />
      <path
         style="fill:#e76f00"
         d="m 168.625,181.799 c 17.896,20.604 -4.701,39.146 -4.701,39.146 0,0 45.439,-23.458 24.571,-52.833 -19.491,-27.395 -34.438,-41.005 46.479,-87.934 0.001,-10e-4 -127.013,31.721 -66.349,101.621"
         id="path3085" />
      <path
         style="fill:#5382a1"
         d="m 264.684,321.369 c 0,0 10.492,8.646 -11.555,15.333 -41.923,12.7 -174.488,16.535 -211.314,0.507 -13.238,-5.76 11.587,-13.752 19.396,-15.429 8.144,-1.766 12.798,-1.437 12.798,-1.437 -14.722,-10.371 -95.157,20.363 -40.857,29.166 148.084,24.015 269.944,-10.814 231.532,-28.14 M 109.499,208.617 c 0,0 -67.431,16.016 -23.879,21.832 18.389,2.462 55.047,1.905 89.192,-0.956 27.906,-2.354 55.928,-7.358 55.928,-7.358 0,0 -9.84,4.214 -16.959,9.074 -68.475,18.01 -200.756,9.631 -162.674,-8.79 32.206,-15.568 58.392,-13.802 58.392,-13.802 m 120.963,67.614 c 69.608,-36.171 37.425,-70.932 14.96,-66.248 -5.506,1.146 -7.961,2.139 -7.961,2.139 0,0 2.045,-3.202 5.947,-4.588 44.441,-15.624 78.619,46.081 -14.346,70.521 0,0 1.079,-0.962 1.4,-1.824"
         id="path3087" />
      <path
         style="fill:#e76f00"
         d="m 188.495,4.399 c 0,0 38.55,38.562 -36.563,97.862 -60.233,47.567 -13.735,74.689 -0.025,105.678 -35.158,-31.723 -60.96,-59.647 -43.65,-85.637 25.406,-38.151 95.792,-56.648 80.238,-117.903"
         id="path3089" />
      <path
         style="fill:#5382a1"
         d="m 116.339,374.246 c 66.815,4.277 169.417,-2.373 171.846,-33.987 0,0 -4.67,11.984 -55.219,21.503 -57.027,10.731 -127.364,9.479 -169.081,2.601 0.002,-0.002 8.541,7.067 52.454,9.883"
         id="path3091" />
      <path
         style="fill:#e76f00"
         d="m 105.389,495.049 c -6.303,5.467 -12.96,8.536 -18.934,8.536 -8.527,0 -13.134,-5.113 -13.134,-13.314 0,-8.871 4.937,-15.357 24.739,-15.357 h 7.328 l 10e-4,20.135 m 17.392,19.623 V 453.93 c 0,-15.518 -8.85,-25.756 -30.188,-25.756 -12.457,0 -23.369,3.076 -32.238,6.999 l 2.56,10.752 c 6.983,-2.563 16.022,-4.949 24.894,-4.949 12.292,0 17.58,4.949 17.58,15.181 v 7.678 h -6.135 c -29.865,0 -43.337,11.593 -43.337,28.993 0,15.018 8.878,23.554 25.594,23.554 10.745,0 18.766,-4.437 26.264,-10.929 l 1.361,9.221 z m 58.043,0 h -21.691 l -26.106,-84.96 h 18.944 l 16.198,52.199 3.601,15.699 c 8.195,-22.698 13.992,-45.726 16.891,-67.898 h 18.427 c -4.938,27.976 -13.822,58.684 -26.264,84.96 m 83.214,-19.623 c -6.315,5.467 -12.983,8.536 -18.958,8.536 -8.512,0 -13.131,-5.113 -13.131,-13.314 0,-8.871 4.947,-15.357 24.748,-15.357 h 7.341 v 20.135 m 17.39,19.623 V 453.93 c 0,-15.518 -8.871,-25.756 -30.186,-25.756 -12.465,0 -23.381,3.076 -32.246,6.999 l 2.557,10.752 c 6.985,-2.563 16.041,-4.949 24.906,-4.949 12.283,0 17.579,4.949 17.579,15.181 v 7.678 h -6.146 c -29.873,0 -43.34,11.593 -43.34,28.993 0,15.018 8.871,23.554 25.584,23.554 10.752,0 18.77,-4.437 26.28,-10.929 l 1.366,9.221 z M 36.847,529.099 c -4.958,7.239 -12.966,12.966 -21.733,16.206 L 6.527,535.2 c 6.673,-3.424 12.396,-8.954 15.055,-14.104 2.3,-4.581 3.252,-10.485 3.252,-24.604 v -96.995 h 18.478 v 95.666 c -10e-4,18.875 -1.51,26.5 -6.465,33.936"
         id="path3093" />
    </g>
  </g>
</svg>
